#!OML:ASF E:\Steps\Project 1\Capture day 1\Session 2\Subject.ASF
:FULLY-SPECIFIED
:DEGREES
438
root 3.09317 17.3992 19.2776 -156.067 -1.01845 192.364
lowerback -21.3567 -5.97893 -13.2863
upperback 1.00363 -4.19308 -0.2403
thorax 14.2761 -2.7597 5.87553
lowerneck -3.49525 -10.423 -0.0438433
upperneck 28.5795 -14.0772 4.95973
head 10.0365 -5.26003 0.525415
rclavicle 1.74931e-014 1.145e-013
rhumerus -47.6303 -15.3195 -76.2059
rradius 35.3905
rwrist -5.73768
rhand -7.35052 -52.5073
rfingers 7.12502
rthumb 18.5337 -81.6443
lclavicle 1.74931e-014 1.145e-013
lhumerus -27.5424 -8.21905 59.8971
lradius 38.9385
lwrist 2.49939
lhand -21.4653 -10.1761
lfingers 7.12502
lthumb 4.92509 19.7466
rfemur -30.508 5.50401 -5.23838
rtibia 6.18519
rfoot 3.01763 -20.1241
rtoes -31.7624
lfemur -21.6962 -14.3865 10.4584
ltibia 25.8272
lfoot -24.4345 15.8582
ltoes -44.054
439
root 3.19974 17.3631 19.2386 -155.816 -1.29359 192.176
lowerback -21.6918 -6.04293 -13.2824
upperback 1.04495 -4.24184 -0.131513
thorax 14.5395 -2.80295 5.96291
lowerneck -3.56437 -10.2869 -0.298783
upperneck 28.4891 -13.8744 5.03658
head 10.0343 -5.19161 0.607856
rclavicle 3.73715e-014 7.31528e-014
rhumerus -47.4598 -14.8775 -76.1413
rradius 35.2867
rwrist -5.64892
rhand -7.49913 -52.6197
rfingers 7.12502
rthumb 18.3907 -81.7704
lclavicle 3.73715e-014 7.31528e-014
lhumerus -27.5097 -8.09595 60.058
lradius 39.1201
lwrist 2.48857
lhand -20.7991 -10.076
lfingers 7.12502
lthumb 5.5683 19.8308
rfemur -30.6023 5.15675 -5.02967
rtibia 6.24006
rfoot 3.68485 -19.0699
rtoes -32.2533
lfemur -21.817 -14.5678 10.8086
ltibia 25.7235
lfoot -24.3933 16.1633
ltoes -45.0084
440
root 3.3081 17.3259 19.2113 -155.488 -1.56457 191.941
lowerback -21.8179 -6.10299 -13.2606
upperback 0.96619 -4.32202 -0.0379444
thorax 14.5409 -2.83699 6.02758
lowerneck -3.35367 -10.1694 -0.630793
upperneck 28.223 -13.7056 5.28407
head 9.93533 -5.1424 0.774322
rclavicle -2.8625e-014 0
rhumerus -47.3466 -14.3409 -76.0523
rradius 35.1072
rwrist -5.6349
rhand -7.36773 -52.5357
rfingers 7.12502
rthumb 18.5171 -81.6744
lclavicle -2.8625e-014 0
lhumerus -27.5848 -8.13489 60.2447
lradius 39.2559
lwrist 2.52781
lhand -20.8911 -10.3819
lfingers 7.12502
lthumb 5.47951 19.5273
rfemur -30.9392 4.97433 -4.97093
rtibia 6.45812
rfoot 4.48207 -18.2724
rtoes -31.5565
lfemur -22.133 -14.775 11.1878
ltibia 25.6722
lfoot -24.2713 16.5022
ltoes -46.0649
441
root 3.41765 17.2859 19.1919 -155.177 -1.79717 191.78
lowerback -21.6102 -5.96664 -12.9021
upperback 0.956815 -4.2636 -0.103504
thorax 14.357 -2.77339 5.78314
lowerneck -3.85899 -10.2381 -0.355857
upperneck 28.2378 -13.8622 5.15802
head 10.011 -5.19925 0.643096
rclavicle 3.33958e-014 5.40694e-014
rhumerus -47.0064 -14.2656 -76.1384
rradius 34.898
rwrist -5.41987
rhand -7.73322 -52.5898
rfingers 7.12502
rthumb 18.1655 -81.7616
lclavicle 3.33958e-014 5.40694e-014
lhumerus -27.2673 -8.36029 60.1999
lradius 39.3763
lwrist 2.62145
lhand -21.3241 -10.6812
lfingers 7.12502
lthumb 5.06142 19.2384
rfemur -31.4795 4.91653 -4.8004
rtibia 7.01077
rfoot 5.64658 -17.4241
rtoes -31.209
lfemur -22.4457 -14.7616 11.6499
ltibia 25.6175
lfoot -24.1269 16.787
ltoes -47.3675
442
root 3.52811 17.2479 19.1683 -155.12 -2.24267 191.524
lowerback -21.6164 -5.93746 -12.8687
upperback 1.02919 -4.24711 -0.0428668
thorax 14.4461 -2.77908 5.83725
lowerneck -3.40655 -10.3822 -0.190386
upperneck 27.8606 -13.9941 4.94051
head 9.76068 -5.30681 0.558392
rclavicle -2.70347e-014 -1.90833e-014
rhumerus -46.9246 -14.1244 -75.9448
rradius 34.7512
rwrist -5.34259
rhand -8.74636 -52.8899
rfingers 7.12502
rthumb 17.1906 -82.1495
lclavicle -2.70347e-014 -1.90833e-014
lhumerus -27.0962 -8.58969 60.394
lradius 39.512
lwrist 2.43016
lhand -22.1193 -10.9912
lfingers 7.12502
lthumb 4.29355 18.9453
rfemur -31.5462 4.97485 -4.61497
rtibia 7.48753
rfoot 6.91075 -16.7123
rtoes -31.5069
lfemur -22.609 -14.8912 12.0296
ltibia 25.571
lfoot -23.9992 16.8646
ltoes -48.5702
443
root 3.63624 17.2106 19.143 -155.064 -2.98849 190.896
lowerback -20.5648 -5.50586 -12.8203
upperback 0.93818 -4.38048 -0.279707
thorax 13.6815 -3.01657 5.5001
lowerneck -4.32288 -10.5209 0.375125
upperneck 28.3121 -14.2595 4.60989
head 10.036 -5.36123 0.275799
rclavicle 4.92986e-014 7.95139e-014
rhumerus -46.9214 -14.2739 -76.0025
rradius 34.5952
rwrist -5.15209
rhand -9.02631 -52.8936
rfingers 7.12502
rthumb 16.9211 -82.1764
lclavicle 4.92986e-014 7.95139e-014
lhumerus -26.8183 -9.22802 60.3099
lradius 39.6957
lwrist 2.24634
lhand -23.627 -11.7204
lfingers 7.12502
lthumb 2.83757 18.2404
rfemur -31.3211 4.53551 -4.64745
rtibia 7.96006
rfoot 7.70242 -16.0545
rtoes -32.8358
lfemur -23.0536 -15.4785 12.1284
ltibia 25.6583
lfoot -23.9651 16.8987
ltoes -49.6204
444
root 3.75665 17.1701 19.1022 -154.973 -3.31447 190.395
lowerback -21.0673 -5.50342 -12.8952
upperback 1.4509 -4.20669 -0.362657
thorax 14.5571 -2.98732 5.45607
lowerneck -4.70893 -10.4318 0.481266
upperneck 27.8349 -14.2552 4.79445
head 9.94103 -5.37316 0.302283
rclavicle 7.95139e-015 -2.8625e-014
rhumerus -45.8596 -14.2811 -76.2112
rradius 34.3121
rwrist -4.83364
rhand -8.44882 -52.9513
rfingers 7.12502
rthumb 17.4769 -82.1857
lclavicle 7.95139e-015 -2.8625e-014
lhumerus -25.8885 -9.25809 60.3237
lradius 39.7907
lwrist 2.23456
lhand -22.8073 -11.4525
lfingers 7.12502
lthumb 3.62922 18.4963
rfemur -31.4867 4.26904 -4.48683
rtibia 8.90527
rfoot 6.73573 -15.7574
rtoes -34.4072
lfemur -23.0889 -15.8194 12.2347
ltibia 25.4739
lfoot -23.7583 17.2144
ltoes -51.1604
445
root 3.90592 17.1346 19.0499 -155.077 -3.38029 190.041
lowerback -20.6288 -5.39891 -13.2512
upperback 1.31995 -4.06248 -0.328081
thorax 14.1465 -2.92954 5.77835
lowerneck -4.5209 -10.3926 0.460104
upperneck 27.8675 -14.1302 4.71242
head 9.9077 -5.31709 0.303175
rclavicle 3.73715e-014 -5.40694e-014
rhumerus -46.1363 -13.6988 -76.1688
rradius 34.2731
rwrist -4.70733
rhand -7.78802 -52.8232
rfingers 7.12502
rthumb 18.1128 -81.9998
lclavicle 3.73715e-014 -5.40694e-014
lhumerus -26.264 -9.73225 60.5036
lradius 40.0705
lwrist 2.47542
lhand -22.1534 -11.3036
lfingers 7.12502
lthumb 4.26065 18.6335
rfemur -31.7782 4.78281 -4.171
rtibia 10.3758
rfoot 2.74366 -16.5897
rtoes -32.9139
lfemur -22.684 -15.9074 12.5128
ltibia 25.1167
lfoot -23.5449 17.4836
ltoes -52.5856
446
root 4.02819 17.0949 19.0177 -154.873 -3.75595 189.463
lowerback -20.6381 -5.4133 -13.4547
upperback 1.34904 -4.02814 -0.278124
thorax 14.202 -2.93428 5.96124
lowerneck -4.58299 -10.4343 0.392929
upperneck 27.817 -14.1576 4.62399
head 9.89882 -5.35133 0.277263
rclavicle -4.77083e-015 -3.18055e-014
rhumerus -45.9372 -13.3286 -75.9364
rradius 34.1119
rwrist -4.69238
rhand -7.20809 -52.2553
rfingers 7.12502
rthumb 18.6707 -81.3793
lclavicle -4.77083e-015 -3.18055e-014
lhumerus -26.0019 -10.0046 60.7879
lradius 40.0938
lwrist 2.36297
lhand -22.4199 -11.646
lfingers 7.12502
lthumb 4.00329 18.2961
rfemur -32.2148 3.57481 -3.54956
rtibia 12.3006
rfoot -2.01079 -16.2013
rtoes -29.8419
lfemur -22.9442 -16.2764 12.624
ltibia 25.0459
lfoot -23.5959 17.5473
ltoes -53.0815
447
root 4.15049 17.0519 18.991 -154.576 -4.13245 188.984
lowerback -20.5415 -5.35095 -13.3472
upperback 1.24826 -3.99711 -0.28391
thorax 14.007 -2.89924 5.91539
lowerneck -4.56597 -10.5142 0.301203
upperneck 27.9335 -14.1927 4.42556
head 9.92873 -5.38963 0.220429
rclavicle 2.3059e-014 1.59028e-014
rhumerus -45.8609 -12.8586 -75.8508
rradius 33.9686
rwrist -4.7774
rhand -6.87687 -51.9911
rfingers 7.12502
rthumb 18.9892 -81.0841
lclavicle 2.3059e-014 1.59028e-014
lhumerus -25.7864 -10.3305 61.0012
lradius 40.0791
lwrist 1.9786
lhand -22.8324 -11.7236
lfingers 7.12502
lthumb 3.60496 18.2257
rfemur -32.7611 2.34282 -2.85141
rtibia 14.159
rfoot -5.43694 -15.6074
rtoes -31.288
lfemur -23.3519 -16.5406 12.9008
ltibia 25.0048
lfoot -23.6487 17.4788
ltoes -52.9422
448
root 4.27465 17.009 18.9623 -154.479 -4.59124 188.438
lowerback -20.0473 -5.26815 -13.2658
upperback 1.09347 -3.99763 -0.31312
thorax 13.5247 -2.8645 5.86879
lowerneck -4.3232 -10.6394 0.21169
upperneck 28.0071 -14.2486 4.15369
head 9.89433 -5.45008 0.150627
rclavicle 1.03368e-014 5.40694e-014
rhumerus -46.0007 -12.2462 -75.8036
rradius 33.9052
rwrist -4.86449
rhand -6.67012 -51.5484
rfingers 7.12502
rthumb 19.1881 -80.6218
lclavicle 1.03368e-014 5.40694e-014
lhumerus -25.9711 -10.6445 61.2726
lradius 40.3403
lwrist 1.74641
lhand -22.73 -11.3915
lfingers 7.12502
lthumb 3.70385 18.556
rfemur -32.8521 1.4252 -2.37536
rtibia 15.5006
rfoot -7.35053 -15.7086
rtoes -36.8698
lfemur -23.6312 -16.953 13.0894
ltibia 24.9685
lfoot -23.9021 17.1334
ltoes -51.9782
449
root 4.39667 16.965 18.932 -154.39 -4.97276 187.884
lowerback -20.4103 -5.21327 -13.1267
upperback 1.5049 -3.83926 -0.389022
thorax 14.1804 -2.81809 5.72267
lowerneck -4.38905 -10.6847 0.128147
upperneck 27.5745 -14.3679 4.30716
head 9.77192 -5.54137 0.201899
rclavicle 3.97569e-014 1.27222e-014
rhumerus -45.1769 -12.0389 -75.8537
rradius 33.6598
rwrist -4.72631
rhand -6.25244 -50.6257
rfingers 7.12502
rthumb 19.5897 -79.6587
lclavicle 3.97569e-014 1.27222e-014
lhumerus -25.3635 -10.6642 61.3707
lradius 40.6174
lwrist 1.74642
lhand -22.6949 -11.4704
lfingers 7.12502
lthumb 3.73778 18.4765
rfemur -32.8861 0.698244 -2.05367
rtibia 16.5034
rfoot -8.93876 -16.2704
rtoes -40.3441
lfemur -23.8374 -17.435 13.2134
ltibia 24.9115
lfoot -24.1158 16.9046
ltoes -51.0568
